Normalized EMG Linear Envelopes
nRows=286
nColumns=4

endheader
time	 med_gas_r	  soleus_r	 tib_ant_r	
2.92723	  0.095809	  0.062025	  0.021130	
2.9605	  0.088518	  0.062059	  0.021353	
2.99376	  0.082321	  0.062179	  0.021532	
3.02702	  0.078076	  0.062456	  0.021617	
3.06029	  0.076098	  0.062886	  0.021612	
3.09355	  0.076031	  0.063387	  0.021569	
3.12682	  0.077010	  0.063854	  0.021557	
3.16008	  0.078077	  0.064221	  0.021610	
3.19334	  0.078664	  0.064478	  0.021708	
3.22661	  0.078842	  0.064648	  0.021791	
3.25987	  0.079214	  0.064745	  0.021801	
3.29314	  0.080507	  0.064756	  0.021713	
3.3264	  0.083033	  0.064638	  0.021546	
3.35966	  0.086249	  0.064359	  0.021355	
3.39293	  0.088756	  0.063949	  0.021208	
3.42619	  0.088928	  0.063547	  0.021146	
3.45946	  0.085905	  0.063358	  0.021156	
3.49272	  0.080237	  0.063552	  0.021173	
3.52598	  0.073616	  0.064153	  0.021136	
3.55925	  0.067907	  0.065015	  0.021039	
3.59251	  0.064279	  0.065887	  0.020936	
3.62578	  0.063004	  0.066549	  0.020884	
3.65904	  0.063814	  0.066914	  0.020878	
3.6923	  0.066260	  0.067048	  0.020840	
3.72557	  0.069761	  0.067094	  0.020680	
3.75883	  0.073532	  0.067167	  0.020368	
3.7921	  0.076751	  0.067272	  0.019952	
3.82536	  0.078957	  0.067302	  0.019531	
3.85862	  0.080302	  0.067102	  0.019189	
3.89189	  0.081342	  0.066567	  0.018966	
3.92515	  0.082505	  0.065703	  0.018871	
3.95842	  0.083696	  0.064650	  0.018900	
3.99168	  0.084364	  0.063631	  0.019053	
4.02494	  0.083953	  0.062886	  0.019326	
4.05821	  0.082366	  0.062582	  0.019683	
4.09147	  0.080093	  0.062736	  0.020048	
4.12474	  0.077891	  0.063192	  0.020328	
4.158	  0.076301	  0.063670	  0.020464	
4.19126	  0.075362	  0.063877	  0.020473	
4.22453	  0.074733	  0.063649	  0.020430	
4.25779	  0.074094	  0.063024	  0.020426	
4.29106	  0.073474	  0.062211	  0.020510	
4.32432	  0.073255	  0.061479	  0.020670	
4.35758	  0.073863	  0.061063	  0.020854	
4.39085	  0.075387	  0.061137	  0.020991	
4.42411	  0.077382	  0.061787	  0.021013	
4.45738	  0.079000	  0.062962	  0.020876	
4.49064	  0.079388	  0.064426	  0.020583	
4.5239	  0.078140	  0.065839	  0.020190	
4.55717	  0.075521	  0.066933	  0.019780	
4.59043	  0.072329	  0.067653	  0.019428	
4.6237	  0.069487	  0.068114	  0.019171	
4.65696	  0.067639	  0.068427	  0.019016	
4.69022	  0.066955	  0.068550	  0.018964	
4.72349	  0.067225	  0.068327	  0.019024	
4.75675	  0.068127	  0.067633	  0.019212	
4.79002	  0.069500	  0.066481	  0.019529	
4.82328	  0.071408	  0.065007	  0.019939	
4.85654	  0.073970	  0.063369	  0.020372	
4.88981	  0.077139	  0.061679	  0.020745	
4.92307	  0.080689	  0.060023	  0.021000	
4.95634	  0.084452	  0.058511	  0.021120	
4.9896	  0.088536	  0.057294	  0.021143	
5.02286	  0.093195	  0.056519	  0.021139	
5.05613	  0.098357	  0.056269	  0.021180	
5.08939	  0.103223	  0.056505	  0.021306	
5.12266	  0.106435	  0.057083	  0.021516	
5.15592	  0.106859	  0.057831	  0.021769	
5.18918	  0.104390	  0.058673	  0.022007	
5.22245	  0.100035	  0.059670	  0.022172	
5.25571	  0.095194	  0.060934	  0.022210	
5.28898	  0.090811	  0.062453	  0.022082	
5.32224	  0.087193	  0.063995	  0.021765	
5.3555	  0.084507	  0.065180	  0.021266	
5.38877	  0.083231	  0.065681	  0.020639	
5.42203	  0.083933	  0.065404	  0.020016	
5.4553	  0.086619	  0.064537	  0.019630	
5.48856	  0.090382	  0.063459	  0.019806	
5.52182	  0.093837	  0.062553	  0.020928	
5.55509	  0.096000	  0.062040	  0.023417	
5.58835	  0.096830	  0.061911	  0.027730	
5.62162	  0.097002	  0.062028	  0.034327	
5.65488	  0.097202	  0.062317	  0.043491	
5.68814	  0.097671	  0.062866	  0.055035	
5.72141	  0.098352	  0.063845	  0.068127	
5.75467	  0.099321	  0.065323	  0.081547	
5.78794	  0.100944	  0.067205	  0.094389	
5.8212	  0.103638	  0.069385	  0.106711	
5.85446	  0.107501	  0.071915	  0.119601	
5.88773	  0.112101	  0.075011	  0.134584	
5.92099	  0.116459	  0.078843	  0.152831	
5.95426	  0.119261	  0.083389	  0.174754	
5.98752	  0.119383	  0.088488	  0.200163	
6.02078	  0.116538	  0.094050	  0.228808	
6.05405	  0.111549	  0.100158	  0.260943	
6.08731	  0.105938	  0.106969	  0.297566	
6.12058	  0.101137	  0.114521	  0.340060	
6.15384	  0.097925	  0.122590	  0.389236	
6.1871	  0.096393	  0.130651	  0.444130	
6.22037	  0.096239	  0.137947	  0.501244	
6.25363	  0.097065	  0.143704	  0.554944	
6.2869	  0.098528	  0.147482	  0.599141	
6.32016	  0.100366	  0.149478	  0.629471	
6.35342	  0.102337	  0.150582	  0.644646	
6.38669	  0.104146	  0.152110	  0.646170	
6.41995	  0.105487	  0.155356	  0.636972	
6.45322	  0.106235	  0.161132	  0.620316	
6.48648	  0.106623	  0.169371	  0.599723	
6.51974	  0.107207	  0.178976	  0.579317	
6.55301	  0.108593	  0.188099	  0.563371	
6.58627	  0.111168	  0.194914	  0.554823	
6.61954	  0.115069	  0.198466	  0.553868	
6.6528	  0.120355	  0.199076	  0.557932	
6.68606	  0.127114	  0.198004	  0.563141	
6.71933	  0.135322	  0.196651	  0.566132	
6.75259	  0.144499	  0.195846	  0.565020	
6.78586	  0.153500	  0.195648	  0.559346	
6.81912	  0.160801	  0.195688	  0.549584	
6.85238	  0.165209	  0.195684	  0.536748	
6.88565	  0.166502	  0.195697	  0.522078	
6.91891	  0.165489	  0.195989	  0.506718	
6.95218	  0.163510	  0.196725	  0.491554	
6.98544	  0.161796	  0.197805	  0.477310	
7.0187	  0.161026	  0.198948	  0.464649	
7.05197	  0.161152	  0.199956	  0.453975	
7.08523	  0.161576	  0.200930	  0.445089	
7.1185	  0.161691	  0.202231	  0.437289	
7.15176	  0.161485	  0.204187	  0.430103	
7.18502	  0.161600	  0.206824	  0.424113	
7.21829	  0.162708	  0.209875	  0.421138	
7.25155	  0.164851	  0.213038	  0.423564	
7.28482	  0.167562	  0.216264	  0.433265	
7.31808	  0.170687	  0.219860	  0.450775	
7.35134	  0.174903	  0.224315	  0.475063	
7.38461	  0.181176	  0.229900	  0.503889	
7.41787	  0.189591	  0.236302	  0.534433	
7.45114	  0.198846	  0.242617	  0.563906	
7.4844	  0.206973	  0.247772	  0.590034	
7.51766	  0.212550	  0.251063	  0.611308	
7.55093	  0.215220	  0.252388	  0.626951	
7.58419	  0.215286	  0.252056	  0.636571	
7.61746	  0.213180	  0.250472	  0.639755	
7.65072	  0.209478	  0.247960	  0.636082	
7.68398	  0.205275	  0.244759	  0.625769	
7.71725	  0.202295	  0.241059	  0.610468	
7.75051	  0.202401	  0.237009	  0.593252	
7.78378	  0.206769	  0.232771	  0.577412	
7.81704	  0.215236	  0.228620	  0.564933	
7.8503	  0.226324	  0.225044	  0.556057	
7.88357	  0.238076	  0.222721	  0.550306	
7.91683	  0.249097	  0.222312	  0.547807	
7.9501	  0.258854	  0.224100	  0.549465	
7.98336	  0.266982	  0.227724	  0.555831	
8.01662	  0.272525	  0.232304	  0.565922	
8.04989	  0.274227	  0.236963	  0.577197	
8.08315	  0.271711	  0.241359	  0.586710	
8.11642	  0.266197	  0.245825	  0.592466	
8.14968	  0.259928	  0.250987	  0.594138	
8.18294	  0.254892	  0.257178	  0.592995	
8.21621	  0.252078	  0.264003	  0.591292	
8.24947	  0.251560	  0.270307	  0.591356	
8.28274	  0.252809	  0.274590	  0.594646	
8.316	  0.254882	  0.275711	  0.601200	
8.34926	  0.256797	  0.273504	  0.609812	
8.38253	  0.258222	  0.268865	  0.618767	
8.41579	  0.259841	  0.263221	  0.626578	
8.44906	  0.262784	  0.257823	  0.632342	
8.48232	  0.267596	  0.253409	  0.635818	
8.51558	  0.273774	  0.250369	  0.637393	
8.54885	  0.280232	  0.248993	  0.637884	
8.58211	  0.286027	  0.249439	  0.638003	
8.61538	  0.290679	  0.251500	  0.637680	
8.64864	  0.294091	  0.254542	  0.635800	
8.6819	  0.296504	  0.257763	  0.630652	
8.71517	  0.298570	  0.260564	  0.620925	
8.74843	  0.301381	  0.262736	  0.606715	
8.7817	  0.306237	  0.264407	  0.590069	
8.81496	  0.314130	  0.265844	  0.574676	
8.84822	  0.325069	  0.267217	  0.564511	
8.88149	  0.337712	  0.268386	  0.561773	
8.91475	  0.349790	  0.268872	  0.565312	
8.94802	  0.359298	  0.268121	  0.570885	
8.98128	  0.365553	  0.265939	  0.573520	
9.01454	  0.369115	  0.262721	  0.570501	
9.04781	  0.370697	  0.259261	  0.562894	
9.08107	  0.370307	  0.256333	  0.554613	
9.11434	  0.367521	  0.254389	  0.549894	
9.1476	  0.362461	  0.253550	  0.550967	
9.18086	  0.356353	  0.253744	  0.557270	
9.21413	  0.351192	  0.254820	  0.566401	
9.24739	  0.348894	  0.256652	  0.575979	
9.28066	  0.350459	  0.259236	  0.585089	
9.31392	  0.355567	  0.262691	  0.594295	
9.34718	  0.362881	  0.267044	  0.604355	
9.38045	  0.370971	  0.271946	  0.614902	
9.41371	  0.379049	  0.276566	  0.624290	
9.44698	  0.386802	  0.279868	  0.630638	
9.48024	  0.393586	  0.281151	  0.632979	
9.5135	  0.398030	  0.280550	  0.631614	
9.54677	  0.398572	  0.279163	  0.627728	
9.58003	  0.394435	  0.278651	  0.622901	
9.6133	  0.386198	  0.280451	  0.618882	
9.64656	  0.375599	  0.285045	  0.617409	
9.67982	  0.364844	  0.291772	  0.619765	
9.71309	  0.355869	  0.299313	  0.626115	
9.74635	  0.349865	  0.306418	  0.635075	
9.77962	  0.347104	  0.312258	  0.644026	
9.81288	  0.347025	  0.316258	  0.650195	
9.84614	  0.348454	  0.317847	  0.651859	
9.87941	  0.349910	  0.316549	  0.648838	
9.91267	  0.350045	  0.312289	  0.642000	
9.94594	  0.348183	  0.305466	  0.632409	
9.9792	  0.344738	  0.296731	  0.621006	
10.0125	  0.341079	  0.286826	  0.609024	
10.0457	  0.338695	  0.276690	  0.598369	
10.079	  0.338137	  0.267572	  0.591073	
10.1123	  0.338659	  0.260832	  0.587967	
10.1455	  0.338905	  0.257463	  0.587769	
10.1788	  0.338028	  0.257712	  0.587560	
10.212	  0.336313	  0.261109	  0.584318	
10.2453	  0.334975	  0.266820	  0.576253	
10.2786	  0.335506	  0.274046	  0.563115	
10.3118	  0.339084	  0.282191	  0.545765	
10.3451	  0.346186	  0.290825	  0.525811	
10.3784	  0.356356	  0.299601	  0.505569	
10.4116	  0.368104	  0.308245	  0.487812	
10.4449	  0.379176	  0.316537	  0.474834	
10.4782	  0.387229	  0.324223	  0.467198	
10.5114	  0.390636	  0.330924	  0.463177	
10.5447	  0.388924	  0.336166	  0.459569	
10.578	  0.382722	  0.339491	  0.453479	
10.6112	  0.373508	  0.340529	  0.443903	
10.6445	  0.363413	  0.339050	  0.432100	
10.6777	  0.354924	  0.335155	  0.420736	
10.711	  0.350156	  0.329566	  0.412598	
10.7443	  0.349835	  0.323707	  0.409711	
10.7775	  0.352743	  0.319312	  0.413028	
10.8108	  0.356232	  0.317702	  0.422420	
10.8441	  0.357533	  0.319149	  0.436855	
10.8773	  0.354996	  0.322737	  0.454841	
10.9106	  0.348605	  0.326813	  0.474937	
10.9439	  0.339821	  0.329699	  0.495860	
10.9771	  0.331140	  0.330216	  0.516032	
11.0104	  0.325551	  0.327760	  0.533215	
11.0436	  0.325844	  0.322175	  0.545022	
11.0769	  0.333756	  0.313846	  0.550140	
11.1102	  0.349197	  0.303964	  0.549164	
11.1434	  0.369985	  0.294500	  0.544130	
11.1767	  0.392331	  0.287564	  0.537121	
11.21	  0.411898	  0.284548	  0.529241	
11.2432	  0.424992	  0.285777	  0.520781	
11.2765	  0.429537	  0.290812	  0.512062	
11.3098	  0.425698	  0.298929	  0.503814	
11.343	  0.415913	  0.309293	  0.496714	
11.3763	  0.403982	  0.320915	  0.490769	
11.4096	  0.393418	  0.332686	  0.485330	
11.4428	  0.385991	  0.343496	  0.479691	
11.4761	  0.381519	  0.352252	  0.473531	
11.5093	  0.378910	  0.357893	  0.466824	
11.5426	  0.377442	  0.359565	  0.459495	
11.5759	  0.377192	  0.356915	  0.451280	
11.6091	  0.378569	  0.350224	  0.441832	
11.6424	  0.381705	  0.340357	  0.430843	
11.6757	  0.386260	  0.328712	  0.418124	
11.7089	  0.391461	  0.317138	  0.403769	
11.7422	  0.396030	  0.307483	  0.388395	
11.7755	  0.398249	  0.300814	  0.373168	
11.8087	  0.396549	  0.296890	  0.359481	
11.842	  0.390453	  0.294557	  0.348455	
11.8752	  0.381067	  0.292830	  0.340548	
11.9085	  0.370602	  0.291732	  0.335358	
11.9418	  0.361272	  0.292123	  0.331639	
11.975	  0.354459	  0.294771	  0.327665	
12.0083	  0.350616	  0.299592	  0.321967	
12.0416	  0.349682	  0.305643	  0.314157	
12.0748	  0.351410	  0.311674	  0.305261	
12.1081	  0.355337	  0.316630	  0.297251	
12.1414	  0.360609	  0.319774	  0.292043	
12.1746	  0.366008	  0.320600	  0.290559	
12.2079	  0.370300	  0.318842	  0.292372	
12.2412	  0.372580	  0.314719	  0.296084	
12.2744	  0.372342	  0.309195	  0.300148	
12.3077	  0.369391	  0.303864	  0.303596	
12.3409	  0.363883	  0.300296	  0.306268	
12.3742	  0.356539	  0.299198	  0.308494	
12.4075	  0.348696	  0.300099	  0.310543	
